<?xml version="1.0" ?><!DOCTYPE svg  PUBLIC '-//W3C//DTD SVG 1.1//EN'  'http://www.w3.org/Graphics/SVG/1.1/DTD/svg11.dtd'><svg height="86.974px" id="Layer_1" style="enable-background:new 0 0 73.332 86.974;" version="1.1" viewBox="0 0 73.332 86.974" width="73.332px" xml:space="preserve" xmlns="http://www.w3.org/2000/svg" xmlns:xlink="http://www.w3.org/1999/xlink"><g><path d="M67.125,43.3c0.088-0.939,0.146-1.887,0.146-2.849c0-10.8-5.598-20.285-14.045-25.733   c0.076-0.51,0.129-1.025,0.129-1.552C53.355,5.895,45.883,0,36.666,0S19.977,5.895,19.977,13.166c0,0.527,0.051,1.043,0.127,1.554   C11.658,20.168,6.061,29.652,6.061,40.451c0,0.961,0.061,1.908,0.148,2.848C2.533,44.921,0,48.829,0,53.512   c0,5.673,3.463,10.468,9.785,13.61c5.559,15.109,21.521,19.852,26.881,19.852c5.143,0,21.359-4.922,26.881-19.851   c6.324-3.143,9.785-7.938,9.785-13.611C73.332,48.83,70.799,44.923,67.125,43.3z M59.918,62.198   c-0.791,0.348-1.395,1.018-1.654,1.841c-4.023,12.7-18.16,16.935-21.598,16.935c-3.578,0-17.516-4.056-21.596-16.935   c-0.262-0.823-0.863-1.493-1.654-1.841C8.635,60.098,6,57.013,6,53.512c0-2.435,1.418-5.021,4.043-5.021c1.656,0,3-1.343,3-3   c0-0.451,0.027-0.89,0.043-1.335c6.738-0.515,12.865-3.21,17.678-7.386c-1.35-3.45-2.098-7.201-2.098-11.13   c0-3.362,0.549-6.595,1.551-9.619c-0.115,1.082-0.178,2.181-0.178,3.293c0,16.903,13.703,30.605,30.605,30.605   c1.746,0,3.455-0.158,5.121-0.438c1.027,0.975,1.566,2.531,1.566,4.031C67.332,57.013,64.699,60.099,59.918,62.198z" style="fill:#333F4F;"/><path d="M55.443,51.972H17.645c-0.83,0-1.5,0.67-1.5,1.5v4.5c0,3.32,2.689,6,6,6h7c3.318,0,6-2.68,6-6v-1.5   c0-0.83,0.67-1.5,1.5-1.5s1.5,0.67,1.5,1.5v1.5c0,3.32,2.689,6,6,6h7c3.318,0,6-2.68,6-6v-4.3   C57.145,52.732,56.385,51.972,55.443,51.972z M32.145,57.972c0,1.654-1.346,3-3,3h-7c-1.654,0-3-1.346-3-3v-3h13V57.972z    M54.145,57.972c0,1.654-1.346,3-3,3h-7c-1.654,0-3-1.346-3-3v-3h13V57.972z" style="fill:#333F4F;"/></g></svg>